STARTFONT 2.1
COMMENT $Xorg: clI6x12.bdf,v 1.3 2000/08/18 15:17:40 xorgcvs Exp $
COMMENT  
COMMENT  Copyright 1989 Dale Schumacher, dal@syntel.mn.org
COMMENT                 399 Beacon Ave.
COMMENT                 St. Paul, MN  55104-3527
COMMENT  
COMMENT  Permission to use, copy, modify, and distribute this software and
COMMENT  its documentation for any purpose and without fee is hereby
COMMENT  granted, provided that the above copyright notice appear in all
COMMENT  copies and that both that copyright notice and this permission
COMMENT  notice appear in supporting documentation, and that the name of
COMMENT  Dale Schumacher not be used in advertising or publicity pertaining to
COMMENT  distribution of the software without specific, written prior
COMMENT  permission.  Dale Schumacher makes no representations about the
COMMENT  suitability of this software for any purpose.  It is provided "as
COMMENT  is" without express or implied warranty.
COMMENT  
FONT -Schumacher-Clean-Medium-I-Normal--12-120-75-75-C-60-ISO646.1991-IRV
SIZE 12 75 75
FONTBOUNDINGBOX 6 12 0 -3
STARTPROPERTIES 19
FONTNAME_REGISTRY ""
FOUNDRY "Schumacher"
FAMILY_NAME "Clean"
WEIGHT_NAME "Medium"
SLANT "I"
SETWIDTH_NAME "Normal"
ADD_STYLE_NAME ""
PIXEL_SIZE 12
POINT_SIZE 120
RESOLUTION_X 75
RESOLUTION_Y 75
SPACING "C"
AVERAGE_WIDTH 60
CHARSET_REGISTRY "ISO646.1991"
CHARSET_ENCODING "IRV"
FONT_ASCENT 9
FONT_DESCENT 3
DEFAULT_CHAR 0
COPYRIGHT "Copyright 1989 Dale Schumacher."
ENDPROPERTIES
CHARS 128
STARTCHAR C000
ENCODING 0
SWIDTH 666 0
DWIDTH 6 0
BBX 6 12 0 -3
BITMAP
00
7c
7c
44
7c
44
44
44
ff
44
44
7c
ENDCHAR
STARTCHAR C001
ENCODING 1
SWIDTH 666 0
DWIDTH 6 0
BBX 6 12 0 -3
BITMAP
00
00
fc
d8
88
d8
d8
f8
84
00
00
00
ENDCHAR
STARTCHAR C002
ENCODING 2
SWIDTH 666 0
DWIDTH 6 0
BBX 6 12 0 -3
BITMAP
00
00
fc
d8
d8
88
d8
f8
84
00
00
00
ENDCHAR
STARTCHAR C003
ENCODING 3
SWIDTH 666 0
DWIDTH 6 0
BBX 6 12 0 -3
BITMAP
00
00
fc
f8
e8
80
e8
f8
84
00
00
00
ENDCHAR
STARTCHAR C004
ENCODING 4
SWIDTH 666 0
DWIDTH 6 0
BBX 6 12 0 -3
BITMAP
00
00
fc
f8
d8
80
d8
f8
84
00
00
00
ENDCHAR
STARTCHAR C005
ENCODING 5
SWIDTH 666 0
DWIDTH 6 0
BBX 6 12 0 -3
BITMAP
00
00
00
7c
78
78
78
44
00
00
00
00
ENDCHAR
STARTCHAR C006
ENCODING 6
SWIDTH 666 0
DWIDTH 6 0
BBX 6 12 0 -3
BITMAP
00
00
1c
18
18
18
78
78
44
00
00
00
ENDCHAR
STARTCHAR C007
ENCODING 7
SWIDTH 666 0
DWIDTH 6 0
BBX 6 12 0 -3
BITMAP
00
00
7c
78
78
78
78
78
44
00
00
00
ENDCHAR
STARTCHAR C010
ENCODING 8
SWIDTH 666 0
DWIDTH 6 0
BBX 6 12 0 -3
BITMAP
00
00
c0
a0
c0
ac
d0
08
04
18
00
00
ENDCHAR
STARTCHAR C011
ENCODING 9
SWIDTH 666 0
DWIDTH 6 0
BBX 6 12 0 -3
BITMAP
00
00
a0
a0
e0
bc
a8
08
08
08
00
00
ENDCHAR
STARTCHAR C012
ENCODING 10
SWIDTH 666 0
DWIDTH 6 0
BBX 6 12 0 -3
BITMAP
00
00
80
80
80
9c
f0
18
10
10
00
00
ENDCHAR
STARTCHAR C013
ENCODING 11
SWIDTH 666 0
DWIDTH 6 0
BBX 6 12 0 -3
BITMAP
00
00
a0
a0
a0
5c
48
08
08
08
00
00
ENDCHAR
STARTCHAR C014
ENCODING 12
SWIDTH 666 0
DWIDTH 6 0
BBX 6 12 0 -3
BITMAP
00
00
e0
80
c0
9c
90
18
10
10
00
00
ENDCHAR
STARTCHAR C015
ENCODING 13
SWIDTH 666 0
DWIDTH 6 0
BBX 6 12 0 -3
BITMAP
00
00
60
80
80
98
74
18
14
14
00
00
ENDCHAR
STARTCHAR C016
ENCODING 14
SWIDTH 666 0
DWIDTH 6 0
BBX 6 12 0 -3
BITMAP
00
00
70
38
1c
0c
08
10
20
40
00
00
ENDCHAR
STARTCHAR C017
ENCODING 15
SWIDTH 666 0
DWIDTH 6 0
BBX 6 12 0 -3
BITMAP
00
00
08
10
20
40
c0
e0
70
38
00
00
ENDCHAR
STARTCHAR C020
ENCODING 16
SWIDTH 666 0
DWIDTH 6 0
BBX 6 12 0 -3
BITMAP
00
00
30
48
48
00
48
48
30
00
00
00
ENDCHAR
STARTCHAR C021
ENCODING 17
SWIDTH 666 0
DWIDTH 6 0
BBX 6 12 0 -3
BITMAP
00
00
00
08
08
00
08
08
00
00
00
00
ENDCHAR
STARTCHAR C022
ENCODING 18
SWIDTH 666 0
DWIDTH 6 0
BBX 6 12 0 -3
BITMAP
00
00
30
08
08
30
40
40
30
00
00
00
ENDCHAR
STARTCHAR C023
ENCODING 19
SWIDTH 666 0
DWIDTH 6 0
BBX 6 12 0 -3
BITMAP
00
00
30
08
08
30
08
08
30
00
00
00
ENDCHAR
STARTCHAR C024
ENCODING 20
SWIDTH 666 0
DWIDTH 6 0
BBX 6 12 0 -3
BITMAP
00
00
00
48
48
30
08
08
00
00
00
00
ENDCHAR
STARTCHAR C025
ENCODING 21
SWIDTH 666 0
DWIDTH 6 0
BBX 6 12 0 -3
BITMAP
00
00
30
40
40
30
08
08
30
00
00
00
ENDCHAR
STARTCHAR C026
ENCODING 22
SWIDTH 666 0
DWIDTH 6 0
BBX 6 12 0 -3
BITMAP
00
00
30
40
40
30
48
48
30
00
00
00
ENDCHAR
STARTCHAR C027
ENCODING 23
SWIDTH 666 0
DWIDTH 6 0
BBX 6 12 0 -3
BITMAP
00
00
30
08
08
00
08
08
00
00
00
00
ENDCHAR
STARTCHAR C030
ENCODING 24
SWIDTH 666 0
DWIDTH 6 0
BBX 6 12 0 -3
BITMAP
00
00
30
48
48
30
48
48
30
00
00
00
ENDCHAR
STARTCHAR C031
ENCODING 25
SWIDTH 666 0
DWIDTH 6 0
BBX 6 12 0 -3
BITMAP
00
00
30
48
48
30
08
08
30
00
00
00
ENDCHAR
STARTCHAR C032
ENCODING 26
SWIDTH 666 0
DWIDTH 6 0
BBX 6 12 0 -3
BITMAP
00
00
00
00
38
04
7c
88
70
00
00
00
ENDCHAR
STARTCHAR C033
ENCODING 27
SWIDTH 666 0
DWIDTH 6 0
BBX 6 12 0 -3
BITMAP
00
00
e0
80
e0
8c
f0
10
10
0c
00
00
ENDCHAR
STARTCHAR C034
ENCODING 28
SWIDTH 666 0
DWIDTH 6 0
BBX 6 12 0 -3
BITMAP
00
00
00
10
38
7c
10
10
10
00
00
00
ENDCHAR
STARTCHAR C035
ENCODING 29
SWIDTH 666 0
DWIDTH 6 0
BBX 6 12 0 -3
BITMAP
00
00
00
10
10
10
7c
38
10
00
00
00
ENDCHAR
STARTCHAR C036
ENCODING 30
SWIDTH 666 0
DWIDTH 6 0
BBX 6 12 0 -3
BITMAP
00
00
00
10
18
fc
18
10
00
00
00
00
ENDCHAR
STARTCHAR C037
ENCODING 31
SWIDTH 666 0
DWIDTH 6 0
BBX 6 12 0 -3
BITMAP
00
00
00
20
60
fc
60
20
00
00
00
00
ENDCHAR
STARTCHAR C040
ENCODING 32
SWIDTH 666 0
DWIDTH 6 0
BBX 6 12 0 -3
BITMAP
00
00
00
00
00
00
00
00
00
00
00
00
ENDCHAR
STARTCHAR !
ENCODING 33
SWIDTH 666 0
DWIDTH 6 0
BBX 6 12 0 -3
BITMAP
00
08
08
10
10
20
20
00
40
00
00
00
ENDCHAR
STARTCHAR "
ENCODING 34
SWIDTH 666 0
DWIDTH 6 0
BBX 6 12 0 -3
BITMAP
00
24
48
90
00
00
00
00
00
00
00
00
ENDCHAR
STARTCHAR #
ENCODING 35
SWIDTH 666 0
DWIDTH 6 0
BBX 6 12 0 -3
BITMAP
00
00
14
14
7e
28
fc
50
50
00
00
00
ENDCHAR
STARTCHAR $
ENCODING 36
SWIDTH 666 0
DWIDTH 6 0
BBX 6 12 0 -3
BITMAP
00
00
04
1e
28
10
28
f0
40
00
00
00
ENDCHAR
STARTCHAR %
ENCODING 37
SWIDTH 666 0
DWIDTH 6 0
BBX 6 12 0 -3
BITMAP
00
00
30
32
0c
10
60
98
18
00
00
00
ENDCHAR
STARTCHAR &
ENCODING 38
SWIDTH 666 0
DWIDTH 6 0
BBX 6 12 0 -3
BITMAP
00
00
1c
20
20
60
94
98
68
00
00
00
ENDCHAR
STARTCHAR '
ENCODING 39
SWIDTH 666 0
DWIDTH 6 0
BBX 6 12 0 -3
BITMAP
00
18
10
20
00
00
00
00
00
00
00
00
ENDCHAR
STARTCHAR (
ENCODING 40
SWIDTH 666 0
DWIDTH 6 0
BBX 6 12 0 -3
BITMAP
02
04
08
08
10
10
10
10
10
10
08
00
ENDCHAR
STARTCHAR )
ENCODING 41
SWIDTH 666 0
DWIDTH 6 0
BBX 6 12 0 -3
BITMAP
20
10
10
10
10
10
10
20
20
40
80
00
ENDCHAR
STARTCHAR *
ENCODING 42
SWIDTH 666 0
DWIDTH 6 0
BBX 6 12 0 -3
BITMAP
00
00
00
10
54
78
a8
20
00
00
00
00
ENDCHAR
STARTCHAR +
ENCODING 43
SWIDTH 666 0
DWIDTH 6 0
BBX 6 12 0 -3
BITMAP
00
00
00
10
10
fc
20
20
00
00
00
00
ENDCHAR
STARTCHAR ,
ENCODING 44
SWIDTH 666 0
DWIDTH 6 0
BBX 6 12 0 -3
BITMAP
00
00
00
00
00
00
00
30
30
20
40
00
ENDCHAR
STARTCHAR -
ENCODING 45
SWIDTH 666 0
DWIDTH 6 0
BBX 6 12 0 -3
BITMAP
00
00
00
00
00
fc
00
00
00
00
00
00
ENDCHAR
STARTCHAR .
ENCODING 46
SWIDTH 666 0
DWIDTH 6 0
BBX 6 12 0 -3
BITMAP
00
00
00
00
00
00
00
30
30
00
00
00
ENDCHAR
STARTCHAR /
ENCODING 47
SWIDTH 666 0
DWIDTH 6 0
BBX 6 12 0 -3
BITMAP
02
04
04
08
10
10
20
40
40
80
00
00
ENDCHAR
STARTCHAR 0
ENCODING 48
SWIDTH 666 0
DWIDTH 6 0
BBX 6 12 0 -3
BITMAP
00
1c
22
26
5c
64
88
88
70
00
00
00
ENDCHAR
STARTCHAR 1
ENCODING 49
SWIDTH 666 0
DWIDTH 6 0
BBX 6 12 0 -3
BITMAP
00
08
18
08
10
10
10
20
20
00
00
00
ENDCHAR
STARTCHAR 2
ENCODING 50
SWIDTH 666 0
DWIDTH 6 0
BBX 6 12 0 -3
BITMAP
00
1c
22
04
08
10
20
40
f8
00
00
00
ENDCHAR
STARTCHAR 3
ENCODING 51
SWIDTH 666 0
DWIDTH 6 0
BBX 6 12 0 -3
BITMAP
00
1c
22
02
1c
04
04
88
70
00
00
00
ENDCHAR
STARTCHAR 4
ENCODING 52
SWIDTH 666 0
DWIDTH 6 0
BBX 6 12 0 -3
BITMAP
00
04
0c
18
28
48
fc
10
38
00
00
00
ENDCHAR
STARTCHAR 5
ENCODING 53
SWIDTH 666 0
DWIDTH 6 0
BBX 6 12 0 -3
BITMAP
00
3e
20
40
78
04
04
88
70
00
00
00
ENDCHAR
STARTCHAR 6
ENCODING 54
SWIDTH 666 0
DWIDTH 6 0
BBX 6 12 0 -3
BITMAP
00
0e
10
20
78
44
84
88
70
00
00
00
ENDCHAR
STARTCHAR 7
ENCODING 55
SWIDTH 666 0
DWIDTH 6 0
BBX 6 12 0 -3
BITMAP
00
3e
24
04
08
08
10
10
20
00
00
00
ENDCHAR
STARTCHAR 8
ENCODING 56
SWIDTH 666 0
DWIDTH 6 0
BBX 6 12 0 -3
BITMAP
00
1c
22
44
38
44
84
88
70
00
00
00
ENDCHAR
STARTCHAR 9
ENCODING 57
SWIDTH 666 0
DWIDTH 6 0
BBX 6 12 0 -3
BITMAP
00
1c
22
42
44
3c
08
10
e0
00
00
00
ENDCHAR
STARTCHAR :
ENCODING 58
SWIDTH 666 0
DWIDTH 6 0
BBX 6 12 0 -3
BITMAP
00
00
00
18
18
00
00
30
30
00
00
00
ENDCHAR
STARTCHAR ;
ENCODING 59
SWIDTH 666 0
DWIDTH 6 0
BBX 6 12 0 -3
BITMAP
00
00
00
18
18
00
00
30
30
20
40
00
ENDCHAR
STARTCHAR <
ENCODING 60
SWIDTH 666 0
DWIDTH 6 0
BBX 6 12 0 -3
BITMAP
00
00
00
0c
30
c0
60
30
00
00
00
00
ENDCHAR
STARTCHAR =
ENCODING 61
SWIDTH 666 0
DWIDTH 6 0
BBX 6 12 0 -3
BITMAP
00
00
00
00
7c
00
f8
00
00
00
00
00
ENDCHAR
STARTCHAR >
ENCODING 62
SWIDTH 666 0
DWIDTH 6 0
BBX 6 12 0 -3
BITMAP
00
00
00
30
18
0c
30
c0
00
00
00
00
ENDCHAR
STARTCHAR ?
ENCODING 63
SWIDTH 666 0
DWIDTH 6 0
BBX 6 12 0 -3
BITMAP
00
38
44
08
10
20
20
00
40
00
00
00
ENDCHAR
STARTCHAR @
ENCODING 64
SWIDTH 666 0
DWIDTH 6 0
BBX 6 12 0 -3
BITMAP
00
00
1c
22
4e
5c
98
80
70
00
00
00
ENDCHAR
STARTCHAR A
ENCODING 65
SWIDTH 666 0
DWIDTH 6 0
BBX 6 12 0 -3
BITMAP
00
00
08
14
24
44
7c
88
88
00
00
00
ENDCHAR
STARTCHAR B
ENCODING 66
SWIDTH 666 0
DWIDTH 6 0
BBX 6 12 0 -3
BITMAP
00
00
3c
22
44
78
44
88
f0
00
00
00
ENDCHAR
STARTCHAR C
ENCODING 67
SWIDTH 666 0
DWIDTH 6 0
BBX 6 12 0 -3
BITMAP
00
00
1c
22
40
40
80
88
70
00
00
00
ENDCHAR
STARTCHAR D
ENCODING 68
SWIDTH 666 0
DWIDTH 6 0
BBX 6 12 0 -3
BITMAP
00
00
38
24
44
44
48
88
f0
00
00
00
ENDCHAR
STARTCHAR E
ENCODING 69
SWIDTH 666 0
DWIDTH 6 0
BBX 6 12 0 -3
BITMAP
00
00
3e
20
40
78
40
80
f8
00
00
00
ENDCHAR
STARTCHAR F
ENCODING 70
SWIDTH 666 0
DWIDTH 6 0
BBX 6 12 0 -3
BITMAP
00
00
3e
20
40
78
40
80
80
00
00
00
ENDCHAR
STARTCHAR G
ENCODING 71
SWIDTH 666 0
DWIDTH 6 0
BBX 6 12 0 -3
BITMAP
00
00
1c
22
40
4c
84
88
78
00
00
00
ENDCHAR
STARTCHAR H
ENCODING 72
SWIDTH 666 0
DWIDTH 6 0
BBX 6 12 0 -3
BITMAP
00
00
22
22
44
7c
44
88
88
00
00
00
ENDCHAR
STARTCHAR I
ENCODING 73
SWIDTH 666 0
DWIDTH 6 0
BBX 6 12 0 -3
BITMAP
00
00
3e
08
08
10
20
20
f8
00
00
00
ENDCHAR
STARTCHAR J
ENCODING 74
SWIDTH 666 0
DWIDTH 6 0
BBX 6 12 0 -3
BITMAP
00
00
0e
02
02
04
44
88
70
00
00
00
ENDCHAR
STARTCHAR K
ENCODING 75
SWIDTH 666 0
DWIDTH 6 0
BBX 6 12 0 -3
BITMAP
00
00
22
24
48
70
48
88
84
00
00
00
ENDCHAR
STARTCHAR L
ENCODING 76
SWIDTH 666 0
DWIDTH 6 0
BBX 6 12 0 -3
BITMAP
00
00
20
20
40
40
80
80
f8
00
00
00
ENDCHAR
STARTCHAR M
ENCODING 77
SWIDTH 666 0
DWIDTH 6 0
BBX 6 12 0 -3
BITMAP
00
00
22
36
2a
54
44
88
88
00
00
00
ENDCHAR
STARTCHAR N
ENCODING 78
SWIDTH 666 0
DWIDTH 6 0
BBX 6 12 0 -3
BITMAP
00
00
22
22
54
54
54
88
88
00
00
00
ENDCHAR
STARTCHAR O
ENCODING 79
SWIDTH 666 0
DWIDTH 6 0
BBX 6 12 0 -3
BITMAP
00
00
1c
22
42
44
84
88
70
00
00
00
ENDCHAR
STARTCHAR P
ENCODING 80
SWIDTH 666 0
DWIDTH 6 0
BBX 6 12 0 -3
BITMAP
00
00
3c
22
44
78
40
80
80
00
00
00
ENDCHAR
STARTCHAR Q
ENCODING 81
SWIDTH 666 0
DWIDTH 6 0
BBX 6 12 0 -3
BITMAP
00
00
1c
22
42
44
84
88
70
18
00
00
ENDCHAR
STARTCHAR R
ENCODING 82
SWIDTH 666 0
DWIDTH 6 0
BBX 6 12 0 -3
BITMAP
00
00
3c
22
44
78
50
88
88
00
00
00
ENDCHAR
STARTCHAR S
ENCODING 83
SWIDTH 666 0
DWIDTH 6 0
BBX 6 12 0 -3
BITMAP
00
00
1c
22
20
10
08
88
70
00
00
00
ENDCHAR
STARTCHAR T
ENCODING 84
SWIDTH 666 0
DWIDTH 6 0
BBX 6 12 0 -3
BITMAP
00
00
3e
08
08
10
10
20
20
00
00
00
ENDCHAR
STARTCHAR U
ENCODING 85
SWIDTH 666 0
DWIDTH 6 0
BBX 6 12 0 -3
BITMAP
00
00
22
22
44
44
88
88
70
00
00
00
ENDCHAR
STARTCHAR V
ENCODING 86
SWIDTH 666 0
DWIDTH 6 0
BBX 6 12 0 -3
BITMAP
00
00
22
22
24
28
28
30
20
00
00
00
ENDCHAR
STARTCHAR W
ENCODING 87
SWIDTH 666 0
DWIDTH 6 0
BBX 6 12 0 -3
BITMAP
00
00
22
22
44
54
a8
d8
88
00
00
00
ENDCHAR
STARTCHAR X
ENCODING 88
SWIDTH 666 0
DWIDTH 6 0
BBX 6 12 0 -3
BITMAP
00
00
22
24
18
10
30
48
88
00
00
00
ENDCHAR
STARTCHAR Y
ENCODING 89
SWIDTH 666 0
DWIDTH 6 0
BBX 6 12 0 -3
BITMAP
00
00
22
22
24
18
10
20
20
00
00
00
ENDCHAR
STARTCHAR Z
ENCODING 90
SWIDTH 666 0
DWIDTH 6 0
BBX 6 12 0 -3
BITMAP
00
00
3e
04
08
10
20
40
f8
00
00
00
ENDCHAR
STARTCHAR [
ENCODING 91
SWIDTH 666 0
DWIDTH 6 0
BBX 6 12 0 -3
BITMAP
0e
08
08
08
10
10
10
20
20
20
38
00
ENDCHAR
STARTCHAR \
ENCODING 92
SWIDTH 666 0
DWIDTH 6 0
BBX 6 12 0 -3
BITMAP
20
20
20
10
10
10
10
08
08
08
00
00
ENDCHAR
STARTCHAR ]
ENCODING 93
SWIDTH 666 0
DWIDTH 6 0
BBX 6 12 0 -3
BITMAP
38
08
08
08
10
10
10
20
20
20
e0
00
ENDCHAR
STARTCHAR ^
ENCODING 94
SWIDTH 666 0
DWIDTH 6 0
BBX 6 12 0 -3
BITMAP
00
18
28
48
00
00
00
00
00
00
00
00
ENDCHAR
STARTCHAR _
ENCODING 95
SWIDTH 666 0
DWIDTH 6 0
BBX 6 12 0 -3
BITMAP
00
00
00
00
00
00
00
00
00
fc
00
00
ENDCHAR
STARTCHAR `
ENCODING 96
SWIDTH 666 0
DWIDTH 6 0
BBX 6 12 0 -3
BITMAP
00
30
10
08
00
00
00
00
00
00
00
00
ENDCHAR
STARTCHAR a
ENCODING 97
SWIDTH 666 0
DWIDTH 6 0
BBX 6 12 0 -3
BITMAP
00
00
00
00
3c
44
84
98
68
00
00
00
ENDCHAR
STARTCHAR b
ENCODING 98
SWIDTH 666 0
DWIDTH 6 0
BBX 6 12 0 -3
BITMAP
00
20
20
40
78
44
84
88
f0
00
00
00
ENDCHAR
STARTCHAR c
ENCODING 99
SWIDTH 666 0
DWIDTH 6 0
BBX 6 12 0 -3
BITMAP
00
00
00
00
3c
40
80
80
78
00
00
00
ENDCHAR
STARTCHAR d
ENCODING 100
SWIDTH 666 0
DWIDTH 6 0
BBX 6 12 0 -3
BITMAP
00
02
02
04
3c
44
84
88
78
00
00
00
ENDCHAR
STARTCHAR e
ENCODING 101
SWIDTH 666 0
DWIDTH 6 0
BBX 6 12 0 -3
BITMAP
00
00
00
00
38
44
f8
80
70
00
00
00
ENDCHAR
STARTCHAR f
ENCODING 102
SWIDTH 666 0
DWIDTH 6 0
BBX 6 12 0 -3
BITMAP
00
0e
10
10
78
20
20
40
40
00
00
00
ENDCHAR
STARTCHAR g
ENCODING 103
SWIDTH 666 0
DWIDTH 6 0
BBX 6 12 0 -3
BITMAP
00
00
00
00
3c
44
84
88
78
10
10
e0
ENDCHAR
STARTCHAR h
ENCODING 104
SWIDTH 666 0
DWIDTH 6 0
BBX 6 12 0 -3
BITMAP
00
20
20
40
78
44
44
88
88
00
00
00
ENDCHAR
STARTCHAR i
ENCODING 105
SWIDTH 666 0
DWIDTH 6 0
BBX 6 12 0 -3
BITMAP
00
08
08
00
30
10
20
20
70
00
00
00
ENDCHAR
STARTCHAR j
ENCODING 106
SWIDTH 666 0
DWIDTH 6 0
BBX 6 12 0 -3
BITMAP
00
04
04
00
38
08
08
10
10
20
20
c0
ENDCHAR
STARTCHAR k
ENCODING 107
SWIDTH 666 0
DWIDTH 6 0
BBX 6 12 0 -3
BITMAP
00
20
20
20
48
50
60
90
90
00
00
00
ENDCHAR
STARTCHAR l
ENCODING 108
SWIDTH 666 0
DWIDTH 6 0
BBX 6 12 0 -3
BITMAP
00
18
08
08
10
10
20
20
70
00
00
00
ENDCHAR
STARTCHAR m
ENCODING 109
SWIDTH 666 0
DWIDTH 6 0
BBX 6 12 0 -3
BITMAP
00
00
00
00
68
54
54
a8
a8
00
00
00
ENDCHAR
STARTCHAR n
ENCODING 110
SWIDTH 666 0
DWIDTH 6 0
BBX 6 12 0 -3
BITMAP
00
00
00
00
58
64
44
88
88
00
00
00
ENDCHAR
STARTCHAR o
ENCODING 111
SWIDTH 666 0
DWIDTH 6 0
BBX 6 12 0 -3
BITMAP
00
00
00
00
38
44
84
88
70
00
00
00
ENDCHAR
STARTCHAR p
ENCODING 112
SWIDTH 666 0
DWIDTH 6 0
BBX 6 12 0 -3
BITMAP
00
00
00
00
3c
22
42
44
78
40
80
80
ENDCHAR
STARTCHAR q
ENCODING 113
SWIDTH 666 0
DWIDTH 6 0
BBX 6 12 0 -3
BITMAP
00
00
00
00
3c
44
84
88
78
08
10
10
ENDCHAR
STARTCHAR r
ENCODING 114
SWIDTH 666 0
DWIDTH 6 0
BBX 6 12 0 -3
BITMAP
00
00
00
00
58
60
40
80
80
00
00
00
ENDCHAR
STARTCHAR s
ENCODING 115
SWIDTH 666 0
DWIDTH 6 0
BBX 6 12 0 -3
BITMAP
00
00
00
00
3c
40
30
08
f0
00
00
00
ENDCHAR
STARTCHAR t
ENCODING 116
SWIDTH 666 0
DWIDTH 6 0
BBX 6 12 0 -3
BITMAP
00
08
08
10
7c
10
20
20
18
00
00
00
ENDCHAR
STARTCHAR u
ENCODING 117
SWIDTH 666 0
DWIDTH 6 0
BBX 6 12 0 -3
BITMAP
00
00
00
00
44
44
88
98
68
00
00
00
ENDCHAR
STARTCHAR v
ENCODING 118
SWIDTH 666 0
DWIDTH 6 0
BBX 6 12 0 -3
BITMAP
00
00
00
00
6c
28
30
30
20
00
00
00
ENDCHAR
STARTCHAR w
ENCODING 119
SWIDTH 666 0
DWIDTH 6 0
BBX 6 12 0 -3
BITMAP
00
00
00
00
44
54
a8
a8
50
00
00
00
ENDCHAR
STARTCHAR x
ENCODING 120
SWIDTH 666 0
DWIDTH 6 0
BBX 6 12 0 -3
BITMAP
00
00
00
00
44
28
30
50
88
00
00
00
ENDCHAR
STARTCHAR y
ENCODING 121
SWIDTH 666 0
DWIDTH 6 0
BBX 6 12 0 -3
BITMAP
00
00
00
00
44
44
88
88
78
10
10
e0
ENDCHAR
STARTCHAR z
ENCODING 122
SWIDTH 666 0
DWIDTH 6 0
BBX 6 12 0 -3
BITMAP
00
00
00
00
7c
08
30
40
f8
00
00
00
ENDCHAR
STARTCHAR {
ENCODING 123
SWIDTH 666 0
DWIDTH 6 0
BBX 6 12 0 -3
BITMAP
02
04
04
08
08
10
08
08
10
10
08
00
ENDCHAR
STARTCHAR |
ENCODING 124
SWIDTH 666 0
DWIDTH 6 0
BBX 6 12 0 -3
BITMAP
08
08
08
08
10
10
10
20
20
20
20
00
ENDCHAR
STARTCHAR }
ENCODING 125
SWIDTH 666 0
DWIDTH 6 0
BBX 6 12 0 -3
BITMAP
20
10
10
20
20
10
20
20
40
40
80
00
ENDCHAR
STARTCHAR ~
ENCODING 126
SWIDTH 666 0
DWIDTH 6 0
BBX 6 12 0 -3
BITMAP
00
30
54
18
00
00
00
00
00
00
00
00
ENDCHAR
STARTCHAR C177
ENCODING 127
SWIDTH 666 0
DWIDTH 6 0
BBX 6 12 0 -3
BITMAP
00
00
00
04
0c
14
24
44
fc
00
00
00
ENDCHAR
ENDFONT
